<mxfile host="app.diagrams.net" modified="2023-10-19T13:47:38.599Z" agent="Mozilla/5.0 (Windows NT 10.0; Win64; x64) AppleWebKit/537.36 (KHTML, like Gecko) Chrome/117.0.0.0 Safari/537.36 OPR/103.0.0.0" etag="QrEw5wM04eaD-rKCrkA1" version="22.0.4" type="github">
  <diagram name="PÃ¡gina-1" id="xze03RQGVbHAEg_6dBIH">
    <mxGraphModel dx="1309" dy="761" grid="1" gridSize="10" guides="1" tooltips="1" connect="1" arrows="1" fold="1" page="1" pageScale="1" pageWidth="827" pageHeight="1169" math="0" shadow="0">
      <root>
        <mxCell id="0" />
        <mxCell id="1" parent="0" />
        <mxCell id="ciqBClQ3y13aGaIbxI16-1" value="Systems.Obeject" style="rounded=1;whiteSpace=wrap;html=1;fillColor=#b1ddf0;strokeColor=#10739e;" vertex="1" parent="1">
          <mxGeometry x="480" y="80" width="116" height="50" as="geometry" />
        </mxCell>
        <mxCell id="ciqBClQ3y13aGaIbxI16-2" value="Value Types" style="rounded=1;whiteSpace=wrap;html=1;fillColor=#dae8fc;strokeColor=#6c8ebf;" vertex="1" parent="1">
          <mxGeometry x="210" y="160" width="130" height="40" as="geometry" />
        </mxCell>
        <mxCell id="ciqBClQ3y13aGaIbxI16-3" value="Simple Types" style="rounded=1;whiteSpace=wrap;html=1;fillColor=#dae8fc;strokeColor=#6c8ebf;" vertex="1" parent="1">
          <mxGeometry x="40" y="240" width="100" height="40" as="geometry" />
        </mxCell>
        <mxCell id="ciqBClQ3y13aGaIbxI16-4" value="Enum Types" style="rounded=1;whiteSpace=wrap;html=1;fillColor=#dae8fc;strokeColor=#6c8ebf;" vertex="1" parent="1">
          <mxGeometry x="160" y="240" width="100" height="40" as="geometry" />
        </mxCell>
        <mxCell id="ciqBClQ3y13aGaIbxI16-5" value="Struc Types" style="rounded=1;whiteSpace=wrap;html=1;fillColor=#dae8fc;strokeColor=#6c8ebf;" vertex="1" parent="1">
          <mxGeometry x="280" y="240" width="100" height="40" as="geometry" />
        </mxCell>
        <mxCell id="ciqBClQ3y13aGaIbxI16-6" value="Nullable Types" style="rounded=1;whiteSpace=wrap;html=1;fillColor=#dae8fc;strokeColor=#6c8ebf;" vertex="1" parent="1">
          <mxGeometry x="400" y="240" width="100" height="40" as="geometry" />
        </mxCell>
        <mxCell id="ciqBClQ3y13aGaIbxI16-7" value="ReferenceTypes" style="rounded=1;whiteSpace=wrap;html=1;fillColor=#d5e8d4;strokeColor=#82b366;" vertex="1" parent="1">
          <mxGeometry x="720" y="160" width="130" height="40" as="geometry" />
        </mxCell>
        <mxCell id="ciqBClQ3y13aGaIbxI16-8" value="Class" style="rounded=1;whiteSpace=wrap;html=1;fillColor=#d5e8d4;strokeColor=#82b366;" vertex="1" parent="1">
          <mxGeometry x="550" y="240" width="100" height="40" as="geometry" />
        </mxCell>
        <mxCell id="ciqBClQ3y13aGaIbxI16-9" value="Interface" style="rounded=1;whiteSpace=wrap;html=1;fillColor=#d5e8d4;strokeColor=#82b366;" vertex="1" parent="1">
          <mxGeometry x="670" y="240" width="100" height="40" as="geometry" />
        </mxCell>
        <mxCell id="ciqBClQ3y13aGaIbxI16-10" value="Array" style="rounded=1;whiteSpace=wrap;html=1;fillColor=#d5e8d4;strokeColor=#82b366;" vertex="1" parent="1">
          <mxGeometry x="790" y="240" width="100" height="40" as="geometry" />
        </mxCell>
        <mxCell id="ciqBClQ3y13aGaIbxI16-11" value="Delegate" style="rounded=1;whiteSpace=wrap;html=1;fillColor=#d5e8d4;strokeColor=#82b366;" vertex="1" parent="1">
          <mxGeometry x="910" y="240" width="100" height="40" as="geometry" />
        </mxCell>
        <mxCell id="ciqBClQ3y13aGaIbxI16-12" value="Integral&lt;br&gt;Floating&lt;br&gt;Char&lt;br&gt;Boolean" style="rounded=1;whiteSpace=wrap;html=1;fillColor=#dae8fc;strokeColor=#6c8ebf;" vertex="1" parent="1">
          <mxGeometry x="40" y="300" width="110" height="110" as="geometry" />
        </mxCell>
        <mxCell id="ciqBClQ3y13aGaIbxI16-13" value="Byte &lt;br&gt;Short&lt;br&gt;Int&lt;br&gt;Long&lt;br&gt;Float&lt;br&gt;Double&lt;br&gt;Decimal&lt;br&gt;...." style="rounded=1;whiteSpace=wrap;html=1;fillColor=#dae8fc;strokeColor=#6c8ebf;" vertex="1" parent="1">
          <mxGeometry x="40" y="430" width="110" height="120" as="geometry" />
        </mxCell>
        <mxCell id="ciqBClQ3y13aGaIbxI16-19" value="" style="endArrow=classic;html=1;rounded=0;exitX=0;exitY=0.5;exitDx=0;exitDy=0;" edge="1" parent="1" source="ciqBClQ3y13aGaIbxI16-1">
          <mxGeometry width="50" height="50" relative="1" as="geometry">
            <mxPoint x="460" y="200" as="sourcePoint" />
            <mxPoint x="280" y="150" as="targetPoint" />
            <Array as="points">
              <mxPoint x="280" y="105" />
            </Array>
          </mxGeometry>
        </mxCell>
        <mxCell id="ciqBClQ3y13aGaIbxI16-20" value="" style="endArrow=classic;html=1;rounded=0;exitX=1;exitY=0.5;exitDx=0;exitDy=0;" edge="1" parent="1" source="ciqBClQ3y13aGaIbxI16-1">
          <mxGeometry width="50" height="50" relative="1" as="geometry">
            <mxPoint x="850" y="110" as="sourcePoint" />
            <mxPoint x="790" y="150" as="targetPoint" />
            <Array as="points">
              <mxPoint x="790" y="105" />
            </Array>
          </mxGeometry>
        </mxCell>
        <mxCell id="ciqBClQ3y13aGaIbxI16-21" value="" style="endArrow=classic;html=1;rounded=0;exitX=0.5;exitY=1;exitDx=0;exitDy=0;entryX=0.5;entryY=0;entryDx=0;entryDy=0;" edge="1" parent="1" source="ciqBClQ3y13aGaIbxI16-2" target="ciqBClQ3y13aGaIbxI16-3">
          <mxGeometry width="50" height="50" relative="1" as="geometry">
            <mxPoint x="370" y="400" as="sourcePoint" />
            <mxPoint x="420" y="350" as="targetPoint" />
          </mxGeometry>
        </mxCell>
        <mxCell id="ciqBClQ3y13aGaIbxI16-25" value="" style="endArrow=classic;html=1;rounded=0;exitX=0.5;exitY=1;exitDx=0;exitDy=0;entryX=0.5;entryY=0;entryDx=0;entryDy=0;" edge="1" parent="1" source="ciqBClQ3y13aGaIbxI16-2" target="ciqBClQ3y13aGaIbxI16-4">
          <mxGeometry width="50" height="50" relative="1" as="geometry">
            <mxPoint x="285" y="210" as="sourcePoint" />
            <mxPoint x="100" y="250" as="targetPoint" />
          </mxGeometry>
        </mxCell>
        <mxCell id="ciqBClQ3y13aGaIbxI16-26" value="" style="endArrow=classic;html=1;rounded=0;exitX=0.5;exitY=1;exitDx=0;exitDy=0;entryX=0.5;entryY=0;entryDx=0;entryDy=0;" edge="1" parent="1" source="ciqBClQ3y13aGaIbxI16-2" target="ciqBClQ3y13aGaIbxI16-5">
          <mxGeometry width="50" height="50" relative="1" as="geometry">
            <mxPoint x="295" y="220" as="sourcePoint" />
            <mxPoint x="110" y="260" as="targetPoint" />
          </mxGeometry>
        </mxCell>
        <mxCell id="ciqBClQ3y13aGaIbxI16-27" value="" style="endArrow=classic;html=1;rounded=0;exitX=0.5;exitY=1;exitDx=0;exitDy=0;entryX=0.5;entryY=0;entryDx=0;entryDy=0;" edge="1" parent="1" source="ciqBClQ3y13aGaIbxI16-2" target="ciqBClQ3y13aGaIbxI16-6">
          <mxGeometry width="50" height="50" relative="1" as="geometry">
            <mxPoint x="425" y="400" as="sourcePoint" />
            <mxPoint x="270" y="470" as="targetPoint" />
          </mxGeometry>
        </mxCell>
        <mxCell id="ciqBClQ3y13aGaIbxI16-29" value="" style="endArrow=classic;html=1;rounded=0;exitX=0.5;exitY=1;exitDx=0;exitDy=0;entryX=0.5;entryY=0;entryDx=0;entryDy=0;" edge="1" parent="1" source="ciqBClQ3y13aGaIbxI16-7" target="ciqBClQ3y13aGaIbxI16-8">
          <mxGeometry width="50" height="50" relative="1" as="geometry">
            <mxPoint x="775" y="220" as="sourcePoint" />
            <mxPoint x="590" y="260" as="targetPoint" />
          </mxGeometry>
        </mxCell>
        <mxCell id="ciqBClQ3y13aGaIbxI16-30" value="" style="endArrow=classic;html=1;rounded=0;exitX=0.5;exitY=1;exitDx=0;exitDy=0;entryX=0.5;entryY=0;entryDx=0;entryDy=0;" edge="1" parent="1" source="ciqBClQ3y13aGaIbxI16-7" target="ciqBClQ3y13aGaIbxI16-9">
          <mxGeometry width="50" height="50" relative="1" as="geometry">
            <mxPoint x="755" y="380" as="sourcePoint" />
            <mxPoint x="570" y="420" as="targetPoint" />
          </mxGeometry>
        </mxCell>
        <mxCell id="ciqBClQ3y13aGaIbxI16-31" value="" style="endArrow=classic;html=1;rounded=0;entryX=0.5;entryY=0;entryDx=0;entryDy=0;" edge="1" parent="1" target="ciqBClQ3y13aGaIbxI16-10">
          <mxGeometry width="50" height="50" relative="1" as="geometry">
            <mxPoint x="780" y="200" as="sourcePoint" />
            <mxPoint x="585" y="470" as="targetPoint" />
          </mxGeometry>
        </mxCell>
        <mxCell id="ciqBClQ3y13aGaIbxI16-32" value="" style="endArrow=classic;html=1;rounded=0;exitX=0.5;exitY=1;exitDx=0;exitDy=0;entryX=0.5;entryY=0;entryDx=0;entryDy=0;" edge="1" parent="1" source="ciqBClQ3y13aGaIbxI16-7" target="ciqBClQ3y13aGaIbxI16-11">
          <mxGeometry width="50" height="50" relative="1" as="geometry">
            <mxPoint x="890" y="430" as="sourcePoint" />
            <mxPoint x="705" y="470" as="targetPoint" />
          </mxGeometry>
        </mxCell>
      </root>
    </mxGraphModel>
  </diagram>
</mxfile>
